<?xml version="1.0" encoding="utf-8"?>
<!-- Generator: Adobe Illustrator 23.0.4, SVG Export Plug-In . SVG Version: 6.00 Build 0)  -->
<svg version="1.1" id="Layer_1" xmlns="https://www.w3.org/2000/svg" xmlns:xlink="https://www.w3.org/1999/xlink" x="0px" y="0px"
	 viewBox="0 0 600 400" style="enable-background:new 0 0 600 400;" xml:space="preserve">
<style type="text/css">
	.st0{fill:#878787;}
	.st1{fill:none;}
	.st2{fill:#FFFFFF;}
	.st3{fill:url(#Path_30_1_);}
</style>
<title>defaultArtboard 1</title>
<rect class="st0" width="600" height="400"/>
<g>
	<path id="Path_1" class="st1" d="M312.6,221h-2.1v10h2.2c2.8,0,5-2.2,5-5c0-2.8-2.2-5-5-5C312.6,221,312.6,221,312.6,221z"/>
	<path id="Path_2" class="st1" d="M357.2,174.6h-5.4v29.8h5.6c9.4,0,15.5-6.2,15.5-14.9C372.9,180.8,366.8,174.6,357.2,174.6z"/>
	<path id="Path_3" class="st1" d="M270.1,228.2h4.9c-0.8-1.9-1.6-3.8-2.4-5.7C271.7,224.4,270.9,226.3,270.1,228.2z"/>
	<path id="Path_4" class="st1" d="M188.3,196.7h12.4c-2.4-5.4-4.4-10.2-6.2-15C192.7,186.2,190.6,191.6,188.3,196.7z"/>
	<path id="Path_5" class="st1" d="M260.9,223.6c0-1.6-1.1-2.5-2.9-2.5h-2.5v5.1h2.6C259.9,226.1,260.9,225.2,260.9,223.6z"/>
	<path id="Path_6" class="st1" d="M363.5,228.2h4.9c-0.8-1.9-1.6-3.8-2.4-5.7C365.2,224.4,364.4,226.3,363.5,228.2z"/>
	<path id="Path_7" class="st2" d="M194.6,167.7h-0.2l-20,42.9h7.7l3.8-8.4h17.3l3.8,8.4h7.7L194.6,167.7z M188.3,196.7
		c2.3-5.2,4.5-10.6,6.3-15c1.8,4.8,3.8,9.6,6.2,15H188.3z"/>
	<path id="Path_8" class="st2" d="M224,189.5c0-8.5,6.1-15.1,15.2-15.1c4.2,0,8.4,1.1,12.1,3.1v-6.9c-3.8-2-8.1-3-12.4-3
		c-12.9,0-22.4,9.4-22.4,21.9c0,12.5,9.4,21.9,22.2,21.9c4.5,0.1,8.9-0.9,12.9-2.9v-6.9c-3.9,2-8.2,3-12.6,3
		C230.1,204.6,224,198,224,189.5L224,189.5z"/>
	<path id="Path_9" class="st2" d="M288.3,204.4h-20.1v-12.1h16.3v-6h-16.3v-11.6h19.2v-6.2h-26.6v42.2h27.5L288.3,204.4z"/>
	<path id="Path_10" class="st2" d="M324.7,195l-2.1-2L298,167.7h-0.2v42.9h7.3v-26.5c0.7,0.6,1.4,1.3,2.1,1.9l24.7,25.3h0.2v-42.9
		h-7.3L324.7,195z"/>
	<path id="Path_11" class="st2" d="M357.3,168.4h-12.9v42.2h13c13.9,0,22.9-8.6,22.9-21.1C380.3,177,371.2,168.4,357.3,168.4z
		 M357.4,204.4h-5.6v-29.8h5.4c9.6,0,15.7,6.2,15.7,14.9C372.9,198.2,366.8,204.4,357.4,204.4L357.4,204.4z"/>
	<path id="Rectangle_2" class="st2" d="M186.8,220h1.3v12.2h-1.3V220z"/>
	<path id="Path_12" class="st2" d="M203.4,228.1c0,0.4,0,0.7,0,1.1l-0.4-0.4l-7.8-9h0v12.4h1.3v-8.1c0-0.4,0-0.7,0-1.1
		c0.1,0.1,0.2,0.3,0.4,0.4l7.8,9h0V220h-1.3L203.4,228.1z"/>
	<path id="Path_13" class="st2" d="M210.3,221h3.8v11.1h1.3V221h3.8V220h-8.8L210.3,221z"/>
	<path id="Path_14" class="st2" d="M226.1,226.5h5.1v-1.1h-5.1V221h6.1V220h-7.4v12.2h7.6v-1.1h-6.3V226.5z"/>
	<path id="Path_15" class="st2" d="M246.6,230.7c-0.9,0.3-1.8,0.5-2.7,0.5c-2.8,0-5.1-2.3-5.1-5.1c0-2.8,2.3-5.1,5.1-5.1
		c1.3,0,2.6,0.3,3.7,0.9v-1.3c-1.1-0.6-2.4-0.9-3.7-0.9c-3.5-0.1-6.4,2.7-6.4,6.2c-0.1,3.5,2.7,6.4,6.2,6.4c0.1,0,0.1,0,0.2,0
		c1.4,0,2.7-0.3,4-0.9v-4.6h-1.3L246.6,230.7z"/>
	<path id="Path_16" class="st2" d="M262.2,223.6c0-2.3-1.6-3.6-4.2-3.6h-3.9v12.2h1.3v-5h2.8l2.7,5h1.4l-2.9-5.2
		C261.2,226.7,262.3,225.2,262.2,223.6z M258.1,226.1h-2.6V221h2.5c1.8,0,2.9,1,2.9,2.5C260.9,225.2,259.9,226.1,258.1,226.1z"/>
	<path id="Path_17" class="st2" d="M272.5,219.8l-5.6,12.4h1.4l1.3-3h5.8l1.3,3h1.4L272.5,219.8L272.5,219.8z M270.1,228.2
		c0.9-2,1.6-3.8,2.4-5.7c0.8,1.9,1.6,3.8,2.4,5.7H270.1z"/>
	<path id="Path_18" class="st2" d="M280.9,221h3.8v11.1h1.3V221h3.8V220h-8.8L280.9,221z"/>
	<path id="Path_19" class="st2" d="M296.7,226.5h5.1v-1.1h-5.1V221h6.1V220h-7.4v12.2h7.6v-1.1h-6.3V226.5z"/>
	<path id="Path_20" class="st2" d="M312.6,220h-3.4v12.2h3.4c3.6,0,6.4-2.3,6.4-6.1S316.2,220,312.6,220z M312.6,231.1h-2.2v-10h2.1
		c2.8-0.1,5.1,2.1,5.1,4.9s-2.1,5.1-4.9,5.1C312.7,231.1,312.7,231.1,312.6,231.1z"/>
	<path id="Path_21" class="st2" d="M339.8,225.4h-6.4V220h-1.3v12.2h1.3v-5.6h6.4v5.6h1.3V220h-1.3V225.4z"/>
	<path id="Path_22" class="st2" d="M349.6,226.5h5.1v-1.1h-5.1V221h6.1V220h-7.4v12.2h7.6v-1.1h-6.3L349.6,226.5z"/>
	<path id="Path_23" class="st2" d="M366,219.8l-5.5,12.4h1.4l1.3-3h5.8l1.3,3h1.4L366,219.8L366,219.8z M363.5,228.2
		c0.9-2,1.6-3.8,2.4-5.7c0.8,1.9,1.6,3.8,2.4,5.7H363.5z"/>
	<path id="Path_24" class="st2" d="M378.3,220H377v12.2h6.7v-1.1h-5.4V220z"/>
	<path id="Path_25" class="st2" d="M386.8,221h3.8v11.1h1.3V221h3.8V220h-8.8L386.8,221z"/>
	<path id="Path_26" class="st2" d="M409,225.4h-6.4V220h-1.3v12.2h1.3v-5.6h6.4v5.6h1.3V220H409V225.4z"/>
	<path id="Path_27" class="st2" d="M402.4,181.8l4.4,10.3c2.3,0.1,4.6,0,6.8-0.5l-11.1-23.9h-0.2l-12.4,26.5
		c2.5-1.6,5.3-2.6,8.3-2.7L402.4,181.8z"/>
	<path id="Path_28" class="st2" d="M411,201.8l3.8,8.8h7.7l-4.7-10.2C415.6,201.3,413.3,201.7,411,201.8L411,201.8z"/>
	<path id="Path_29" class="st2" d="M394.3,200.5c-3.5,0.3-6.8,1.8-9.4,4.2l-2.8,5.9h7.7L394.3,200.5z"/>
	
		<linearGradient id="Path_30_1_" gradientUnits="userSpaceOnUse" x1="-0.4416" y1="567.2188" x2="0.5584" y2="567.2188" gradientTransform="matrix(39.349 0 0 -12.384 403.662 7219.3145)">
		<stop  offset="0" style="stop-color:#99CE80"/>
		<stop  offset="0.5" style="stop-color:#57C3D0"/>
		<stop  offset="1" style="stop-color:#576486"/>
	</linearGradient>
	<path id="Path_30" class="st3" d="M417.5,198.2c6.2-2.6,8.2-9.5,8.2-9.5c-3.3,2.2-7,3.8-10.8,4.8c-9.2,2-13.1-1-19.5,0.6
		c-3.8,1-7.1,3.5-9.1,7c0,0,5.1-3.9,13.7-2.6C408,199.7,411.7,200.6,417.5,198.2z"/>
</g>
</svg>
