<?xml version="1.0" standalone="no"?>
<!DOCTYPE svg PUBLIC "-//W3C//DTD SVG 20010904//EN"
 "https://www.w3.org/TR/2001/REC-SVG-20010904/DTD/svg10.dtd">
<svg version="1.0" xmlns="https://www.w3.org/2000/svg"
 width="2174.000000pt" height="1013.000000pt" viewBox="0 0 2174.000000 1013.000000"
 preserveAspectRatio="xMidYMid meet">

<g transform="translate(0.000000,1013.000000) scale(0.100000,-0.100000)"
fill="#000000" stroke="none">
<path d="M6005 7564 c-86 -9 -258 -46 -332 -70 -181 -60 -388 -177 -550 -314
l-73 -60 0 -393 0 -392 38 70 c120 218 223 358 381 516 283 281 575 426 925
458 107 10 335 -2 461 -24 207 -36 463 -114 622 -190 52 -24 91 -40 88 -35
-15 24 -213 145 -319 196 -195 92 -500 182 -746 219 -102 15 -415 27 -495 19z"/>
<path d="M15298 6229 c-17 -9 -18 -64 -18 -919 0 -889 0 -910 19 -920 26 -13
256 -13 282 0 18 10 19 28 19 597 0 352 4 583 9 577 5 -5 125 -265 266 -579
142 -313 266 -578 277 -587 28 -25 298 -27 322 -2 14 14 16 110 16 913 0 857
-1 899 -18 914 -27 25 -273 25 -293 0 -11 -13 -15 -117 -19 -547 l-5 -530
-235 524 c-129 289 -245 535 -257 548 -21 21 -29 22 -185 22 -92 0 -171 -5
-180 -11z"/>
<path d="M16957 6228 c-15 -12 -17 -75 -19 -728 -3 -692 -4 -716 -23 -755 -26
-53 -61 -68 -170 -73 -51 -3 -93 -9 -97 -16 -4 -6 -8 -68 -8 -138 0 -102 3
-130 16 -142 21 -22 233 -22 323 -1 130 31 221 104 260 211 52 138 51 118 51
901 0 714 0 733 -19 743 -29 15 -293 13 -314 -2z"/>
<path d="M10096 6214 c-9 -24 -7 -1797 2 -1812 7 -9 45 -12 158 -10 l149 3 5
515 c3 283 9 523 14 532 13 28 124 107 166 118 61 17 113 -7 134 -62 14 -33
16 -112 16 -561 0 -287 4 -527 8 -534 11 -18 261 -30 290 -14 l22 12 0 545 c0
581 -4 642 -51 740 -38 80 -134 120 -267 112 -90 -6 -146 -30 -243 -108 -34
-28 -68 -49 -73 -47 -7 2 -13 102 -16 293 l-5 289 -151 3 c-132 2 -152 0 -158
-14z"/>
<path d="M9438 6090 c-16 -10 -18 -30 -18 -178 0 -117 -4 -172 -12 -180 -7 -7
-29 -12 -49 -12 -61 0 -69 -16 -69 -134 0 -114 5 -126 60 -126 69 0 64 26 70
-457 5 -431 5 -439 28 -488 40 -86 88 -122 190 -144 72 -15 250 -14 282 2 25
12 25 14 25 137 l0 125 -65 6 c-77 6 -114 22 -129 56 -7 16 -11 141 -11 383 0
416 -11 380 114 380 93 0 96 4 96 129 0 120 -10 131 -113 131 -43 0 -78 5 -85
12 -8 8 -12 61 -12 173 0 88 -5 167 -10 175 -7 12 -37 16 -142 18 -81 1 -140
-2 -150 -8z"/>
<path d="M13980 5799 c-67 -10 -115 -33 -206 -99 -45 -33 -87 -60 -93 -60 -7
0 -11 23 -11 58 0 32 -5 63 -12 70 -8 8 -54 12 -143 12 -89 0 -135 -4 -143
-12 -9 -9 -12 -176 -12 -690 0 -659 1 -678 19 -688 11 -5 74 -10 141 -10 67 0
130 5 141 10 18 10 19 27 19 516 0 552 -1 537 59 582 87 64 104 72 152 72 60
0 96 -28 109 -85 5 -22 10 -273 10 -557 0 -501 1 -518 19 -528 28 -15 274 -13
289 2 9 9 12 146 12 555 0 579 -4 641 -51 739 -41 86 -167 133 -299 113z"/>
<path d="M7538 5516 l-278 -283 0 -144 c0 -301 57 -528 153 -615 167 -151 557
-151 725 0 51 46 86 121 120 255 25 101 27 118 27 351 0 224 -2 253 -24 340
-57 231 -137 321 -323 365 -118 28 -92 45 -400 -269z m349 -18 c76 -35 78 -45
78 -418 0 -308 -1 -327 -20 -360 -29 -50 -93 -80 -170 -80 -77 0 -141 30 -170
80 -19 33 -20 52 -20 360 0 307 1 327 20 359 27 46 61 69 115 80 58 11 114 4
167 -21z"/>
<path d="M9060 5784 c-73 -20 -105 -43 -165 -120 -28 -35 -53 -64 -57 -64 -5
0 -8 35 -8 78 0 47 -5 83 -12 90 -8 8 -53 12 -138 12 -110 0 -129 -2 -143 -18
-16 -17 -17 -79 -17 -683 0 -365 4 -670 8 -677 7 -9 45 -12 158 -10 l149 3 5
495 c6 549 4 538 73 581 32 20 50 21 222 7 l30 -3 3 154 c3 188 5 185 -108
155z"/>
<path d="M11653 5786 c-176 -43 -302 -171 -339 -345 -20 -94 -19 -629 1 -724
48 -226 233 -357 505 -357 212 0 354 70 424 208 30 60 66 175 66 213 l0 30
-152 -3 -153 -3 -8 -30 c-24 -82 -47 -116 -90 -135 -57 -26 -139 -26 -194 1
-66 32 -85 77 -91 216 -3 81 -1 117 8 128 11 13 60 15 334 15 250 0 326 3 340
13 17 12 18 30 14 223 -4 168 -8 219 -23 259 -51 143 -173 249 -332 290 -69
18 -237 18 -310 1z m257 -265 c47 -24 79 -84 87 -163 4 -48 2 -66 -8 -74 -19
-15 -325 -27 -350 -14 -39 21 -14 183 36 230 52 48 160 58 235 21z"/>
<path d="M13125 5793 c-99 -22 -152 -61 -232 -168 l-22 -30 0 81 c-1 48 -6 85
-13 92 -15 15 -265 17 -288 2 -13 -8 -15 -97 -18 -681 -2 -617 -1 -673 14
-690 15 -17 33 -19 150 -19 107 0 136 3 148 16 14 14 16 73 16 497 0 538 -1
527 70 575 32 22 42 23 110 18 41 -4 91 -7 110 -9 l35 -2 3 149 c3 179 -1 188
-83 169z"/>
<path d="M6791 4776 l-205 -205 28 -66 c51 -119 43 -115 222 -115 115 0 156 3
159 13 3 7 4 139 3 295 l-3 282 -204 -204z"/>
<path d="M11046 4029 c-95 -23 -154 -94 -163 -198 -11 -116 36 -179 201 -271
119 -66 156 -104 156 -161 0 -31 -7 -47 -29 -70 -54 -54 -142 -29 -177 51 -21
48 -41 55 -109 38 -62 -16 -66 -31 -29 -105 54 -106 133 -148 266 -142 150 8
229 84 236 225 4 64 1 78 -24 124 -34 63 -79 101 -201 169 -51 29 -101 63
-113 78 -59 75 30 174 117 130 16 -9 38 -31 48 -51 25 -46 37 -50 102 -31 48
14 53 18 53 44 0 45 -58 120 -113 149 -54 28 -156 38 -221 21z"/>
<path d="M11669 4026 c-89 -24 -140 -84 -154 -187 -16 -109 42 -189 200 -279
121 -68 155 -104 155 -164 0 -37 -5 -48 -31 -70 -58 -50 -129 -27 -175 57
l-26 49 -46 -7 c-63 -9 -92 -22 -92 -40 0 -31 60 -134 96 -163 49 -41 108 -56
201 -50 129 8 198 57 229 165 41 139 -25 248 -209 346 -44 23 -96 57 -115 74
-31 29 -34 37 -29 69 16 99 130 111 186 20 28 -45 45 -50 102 -31 61 21 69 42
35 100 -62 104 -190 148 -327 111z"/>
<path d="M12602 4021 c-69 -24 -107 -61 -133 -130 -19 -51 -20 -73 -17 -306 3
-235 4 -252 25 -291 28 -53 83 -100 130 -113 49 -14 167 -14 216 0 86 24 147
111 155 223 6 80 1 86 -74 86 -66 0 -81 -13 -87 -79 -3 -44 -10 -60 -31 -78
-38 -32 -105 -32 -143 1 l-28 24 -3 234 c-3 261 0 273 61 297 76 29 147 -18
147 -97 0 -37 13 -42 96 -42 l64 0 0 38 c0 65 -28 139 -68 181 -65 68 -199 90
-310 52z"/>
<path d="M9147 4012 c-15 -17 -17 -60 -17 -413 0 -294 3 -398 12 -407 8 -8 67
-12 198 -12 131 0 190 4 198 12 15 15 16 82 2 109 -10 17 -22 19 -118 19 -71
0 -112 4 -120 12 -9 9 -12 97 -12 333 0 371 1 365 -79 365 -34 0 -53 -5 -64
-18z"/>
<path d="M9658 4020 c-17 -10 -18 -41 -18 -413 0 -300 3 -406 12 -415 7 -7 33
-12 58 -12 25 0 51 5 58 12 9 9 12 83 12 272 0 164 4 256 9 251 6 -6 59 -119
120 -253 60 -134 117 -252 127 -263 13 -14 31 -19 74 -19 31 0 61 5 68 12 9 9
12 114 12 409 0 348 -2 400 -16 413 -18 19 -94 22 -112 4 -9 -9 -12 -76 -12
-237 0 -125 -4 -231 -8 -238 -5 -8 -48 77 -111 220 -57 128 -109 239 -117 247
-17 17 -132 25 -156 10z"/>
<path d="M10341 4016 c-8 -9 -10 -129 -9 -422 l3 -409 209 -3 c145 -2 213 1
222 9 17 14 19 100 2 117 -8 8 -52 12 -132 12 -67 0 -128 5 -136 10 -11 7 -16
32 -18 94 -4 75 -2 86 17 105 18 18 33 21 105 21 94 0 96 1 96 75 0 57 -15 65
-119 65 -95 0 -101 6 -101 99 0 93 12 101 153 101 75 0 117 4 125 12 18 18 15
94 -4 112 -21 22 -395 24 -413 2z"/>
<path d="M13106 4014 c-14 -13 -16 -65 -16 -413 0 -295 3 -400 12 -409 17 -17
419 -17 436 0 16 16 16 100 0 116 -8 8 -52 12 -133 12 -81 0 -125 4 -133 12
-17 17 -16 194 1 205 6 4 53 10 102 13 l90 5 3 53 c4 75 -4 82 -102 82 -44 0
-87 4 -94 9 -9 5 -12 31 -10 92 l3 84 121 5 c141 6 154 12 154 76 0 73 -4 74
-225 74 -163 0 -196 -3 -209 -16z"/>
<path d="M13682 4018 c-9 -9 -12 -114 -12 -409 0 -219 3 -404 6 -413 8 -20
118 -23 131 -3 4 6 10 127 13 267 l5 255 114 -252 c62 -139 121 -259 131 -268
13 -12 34 -15 81 -13 l64 3 3 409 c1 293 -1 413 -9 422 -14 17 -100 19 -117 2
-9 -9 -12 -77 -12 -245 0 -128 -3 -233 -7 -233 -5 0 -52 100 -106 223 -58 129
-109 231 -123 245 -21 18 -37 22 -88 22 -35 0 -67 -5 -74 -12z"/>
<path d="M14322 4018 c-7 -7 -12 -36 -12 -65 0 -48 3 -54 26 -63 14 -6 51 -10
83 -10 37 0 63 -5 70 -13 7 -9 12 -122 13 -348 l3 -334 63 -3 c38 -2 69 2 78
9 12 9 14 69 14 339 0 250 3 330 13 338 6 5 45 12 85 14 50 2 76 8 82 18 14
22 12 104 -2 118 -17 17 -499 17 -516 0z"/>
<path d="M14936 4014 c-14 -13 -16 -64 -16 -405 0 -250 4 -397 10 -410 10 -18
23 -19 218 -19 149 0 211 3 220 12 16 16 16 100 0 116 -8 8 -52 12 -133 12
-81 0 -125 4 -133 12 -17 17 -16 194 1 205 6 4 53 10 102 13 l90 5 3 53 c4 75
-4 82 -103 82 -59 0 -86 4 -94 14 -8 9 -11 43 -9 93 l3 78 121 5 c141 6 154
12 154 76 0 73 -4 74 -225 74 -163 0 -196 -3 -209 -16z"/>
<path d="M15503 4019 c-20 -20 -18 -812 1 -828 9 -7 40 -11 78 -9 l63 3 3 154
c3 161 8 181 47 181 32 0 46 -22 104 -165 75 -184 67 -175 156 -175 66 0 75 2
75 18 0 10 -29 87 -65 171 -36 84 -65 162 -65 172 0 10 16 31 37 46 52 40 73
92 73 186 0 187 -80 245 -355 254 -107 4 -143 2 -152 -8z m318 -158 c23 -24
29 -38 29 -75 0 -90 -36 -126 -129 -126 -39 0 -53 4 -61 19 -14 28 -13 184 2
199 7 7 38 12 71 12 51 0 62 -4 88 -29z"/>
<path d="M8708 3430 c-76 -106 -78 -110 -78 -167 0 -33 5 -64 12 -71 8 -8 67
-12 200 -12 209 0 208 0 208 72 0 59 -8 63 -137 68 l-118 5 -5 107 -5 106 -77
-108z"/>
<path d="M5050 3012 c0 -15 16 -21 98 -34 53 -8 123 -25 154 -37 74 -29 151
-98 174 -156 17 -44 17 -45 64 -45 l47 0 7 107 c3 59 3 110 -2 115 -4 4 -100
14 -213 23 -113 8 -232 22 -263 30 -70 18 -66 19 -66 -3z"/>
</g>
</svg>
