<?xml version="1.0" encoding="UTF-8"?> <svg xmlns="https://www.w3.org/2000/svg" width="87.358" height="79" viewBox="0 0 87.358 79"><g id="Group_953" data-name="Group 953" transform="translate(0.001 -4.781)"><path id="Path_178" data-name="Path 178" d="M85.423,21.237A26.348,26.348,0,0,0,61.03,4.791h-.044a26.29,26.29,0,0,0-17.309,6.477A26.371,26.371,0,0,0,3.906,44.978a7.875,7.875,0,0,0,.1,11.031h0a7.848,7.848,0,0,0,5.569,2.3c.162,0,.323-.005.483-.015-.01.162-.016.324-.016.487a7.823,7.823,0,0,0,2.307,5.569h0a7.848,7.848,0,0,0,5.57,2.3c.162,0,.323-.005.483-.016-.01.162-.016.324-.016.488A7.823,7.823,0,0,0,20.7,72.7h0A7.856,7.856,0,0,0,26.267,75c.163,0,.326-.006.488-.016A7.875,7.875,0,0,0,40.18,81.043l.318-.318a1.961,1.961,0,0,0,.508.877,7.428,7.428,0,0,0,12.582-4.017,7.431,7.431,0,0,0,9.973-7.277c.1,0,.2.006.294.006a7.426,7.426,0,0,0,7.431-7.421c0-.1,0-.205-.006-.307.1,0,.2.006.3.006a7.431,7.431,0,0,0,6.449-11.127l1.62-1.675a26.4,26.4,0,0,0,5.78-28.554ZM6.8,53.217h0a3.926,3.926,0,0,1,0-5.551h0l6.346-6.346A3.925,3.925,0,0,1,18.7,46.869l-6.346,6.347A3.931,3.931,0,0,1,6.8,53.217Zm8.342,8.344h0a3.927,3.927,0,0,1,0-5.551h0l6.347-6.346a3.925,3.925,0,0,1,5.551,5.551L20.7,61.561A3.93,3.93,0,0,1,15.145,61.561Zm8.347,8.345h0a3.926,3.926,0,0,1,0-5.551h0l6.346-6.346a3.925,3.925,0,1,1,5.551,5.551l-6.346,6.347A3.93,3.93,0,0,1,23.491,69.906ZM37.386,78.25a3.929,3.929,0,0,1-5.551,0h0a3.93,3.93,0,0,1,0-5.551l6.346-6.348A3.925,3.925,0,1,1,43.733,71.9Zm11.338.557a3.486,3.486,0,0,1-4.925,0,1.959,1.959,0,0,0-.877-.508l3.6-3.6a7.9,7.9,0,0,0,1.224-1.58l1.289,1.129a3.488,3.488,0,0,1-.313,4.563ZM74.036,57.625a3.481,3.481,0,0,1-4.924,0L58.674,47.188a1.975,1.975,0,0,0-2.793,2.793L61.1,55.2l5.219,5.218h0a3.483,3.483,0,1,1-4.924,4.926h0l-5.219-5.219-5.217-5.219A1.975,1.975,0,0,0,48.167,57.7l5.218,5.219L58.6,68.135h0a3.483,3.483,0,1,1-4.926,4.924h0c-.031-.031-.063-.06-.1-.087l-1.688-1.478q-.18-.207-.376-.4a1.973,1.973,0,0,0-.5-.365l-2.189-1.917a7.868,7.868,0,0,0-8.176-7.547l-.176.009q.016-.242.016-.487a7.869,7.869,0,0,0-7.866-7.872c-.164,0-.329.005-.494.016.01-.162.016-.324.016-.488a7.869,7.869,0,0,0-7.866-7.872c-.165,0-.329.005-.494.016.01-.162.016-.325.016-.488a7.876,7.876,0,0,0-13.445-5.569L6.791,42.089a22.5,22.5,0,0,1,3.726-26.783,22.422,22.422,0,0,1,30.145-1.42L25.161,26.63l-.045.037a4.74,4.74,0,0,0,1.069,7.851,15.923,15.923,0,0,0,6.733,1.373,19.525,19.525,0,0,0,2.4-.148,21.014,21.014,0,0,0,5.863-1.624,24.491,24.491,0,0,0,6.085-3.862.79.79,0,0,1,.809-.14,25.707,25.707,0,0,0,4.892,1.427L74.036,52.7a3.483,3.483,0,0,1,0,4.924Zm2.8-10.615-.023.024-1.4,1.451L58.847,31.853a17.98,17.98,0,0,0,4.364-.941,17.613,17.613,0,0,0,6.138-3.748,1.976,1.976,0,0,0-2.688-2.9c-6.156,5.717-14.015,3.434-17.107,2.186a4.727,4.727,0,0,0-4.854.8,18.835,18.835,0,0,1-9.864,4.564,13.2,13.2,0,0,1-6.953-.872.761.761,0,0,1-.435-.6.779.779,0,0,1,.249-.694L44.929,15.492l.044-.037c.073-.065.148-.132.219-.2A22.417,22.417,0,0,1,76.839,47.009Z" transform="translate(0 0)" fill="#fff"></path></g></svg> 