<?xml version="1.0" encoding="UTF-8"?> <svg xmlns="https://www.w3.org/2000/svg" width="87.36" height="72.098" viewBox="0 0 87.36 72.098"><g id="Group_956" data-name="Group 956" transform="translate(-6.222 -12.18)"><path id="Path_180" data-name="Path 180" d="M91.484,43.887a6.652,6.652,0,0,0-8.351-.675L64.58,55.786a7.016,7.016,0,0,0-4.335-7.219L52.764,45.55a28.453,28.453,0,0,0-21.548.061l-8.822,3.613a8.573,8.573,0,0,0-9.095-.907L8.614,50.66a4.321,4.321,0,0,0-1.934,5.8L19.4,81.891a4.3,4.3,0,0,0,3.866,2.387,4.358,4.358,0,0,0,1.93-.456l4.685-2.344a8.523,8.523,0,0,0,4.728-7.728l20.448.445c.139,0,.279,0,.418,0a18.819,18.819,0,0,0,10.608-3.26L90.644,54.293a6.693,6.693,0,0,0,.84-10.406ZM30,75.138a4.126,4.126,0,0,1-2.087,2.4L23.3,79.849,10.654,54.561l4.612-2.306a4.163,4.163,0,0,1,5.58,1.859l8.924,17.85A4.122,4.122,0,0,1,30,75.138Zm59.174-26.2a2.28,2.28,0,0,1-1,1.713L63.611,67.3a14.372,14.372,0,0,1-8.461,2.5l-21.78-.473L25.139,52.857l7.745-3.173a24.077,24.077,0,0,1,18.234-.051L58.6,52.649A2.6,2.6,0,0,1,60.143,55.7a2.943,2.943,0,0,1-3.05,2.223c-.04-.006-.08-.007-.12-.013L43.22,55.566a2.2,2.2,0,0,0-.74,4.339l.5.085-.022.135s7.865,1.256,13.137,2.111c.1.016.2.025.308.037a13.662,13.662,0,0,0,9.71-2.21L85.6,46.856a2.292,2.292,0,0,1,3.569,2.08Z" fill="#fff"></path><g id="Group_955" data-name="Group 955"><path id="Path_181" data-name="Path 181" d="M60.527,44.013h-7.7a2.2,2.2,0,0,1-2.2-2.2V34.146H42.961a2.2,2.2,0,0,1-2.2-2.2v-7.7a2.2,2.2,0,0,1,2.2-2.2h7.666V14.381a2.2,2.2,0,0,1,2.2-2.2h7.7a2.2,2.2,0,0,1,2.2,2.2v7.667h7.662a2.2,2.2,0,0,1,2.2,2.2v7.7a2.2,2.2,0,0,1-2.2,2.2H62.729v7.667A2.2,2.2,0,0,1,60.527,44.013Zm-5.5-4.4h3.3V31.945a2.2,2.2,0,0,1,2.2-2.2H68.19v-3.3H60.528a2.2,2.2,0,0,1-2.2-2.2V16.582h-3.3v7.666a2.2,2.2,0,0,1-2.2,2.2H45.162v3.3h7.666a2.2,2.2,0,0,1,2.2,2.2v7.667Z" fill="#fff"></path></g></g></svg> 