<?xml version="1.0" encoding="UTF-8"?> <svg xmlns="https://www.w3.org/2000/svg" width="47.413" height="82.103" viewBox="0 0 47.413 82.103"><g id="Group_954" data-name="Group 954" transform="translate(-21.944 -6.408)"><path id="Path_179" data-name="Path 179" d="M67.856,19.371a7.068,7.068,0,0,1-.61,2.141,54.875,54.875,0,0,0-1.5,6c-.167,1.007-.518.78-1.125,1.4-.457.466-.479.949-.878,1.393-1.062,1.179-2.086.145-3.28.726-.863.42-.208,2.042-.744,2.916-.431.7-1.616,1.621-.847,2.73.625.9,2.012.053,3.127.232,1.088.176,1.789,1.107,2.854.582-.034-.237.1-.579.044-.807,1.9,1.815,1.292,3.312.875,5.788-.221,1.315-.133,2.613-.4,3.936-.258,1.275-.53,2.536-.82,3.8-.549,2.4-.708,4.965-1.086,7.422a19.731,19.731,0,0,1-.587,3.146c-.438,1.3-1.524,2.254-2.287,3.407a27.874,27.874,0,0,0-2.313,4.241c-.671,1.529-2.324,2.652-3.756,3.648a13.548,13.548,0,0,1-1.785,1.311c-1.224.552-1.242.266-1.984,1.383A20.166,20.166,0,0,1,48.746,76.8c-.556.632-.457.991-.766,1.7a32.91,32.91,0,0,1-2.859,4.388,23.687,23.687,0,0,1-2.4,3.255c-.975,1.012-2.565,1.318-2.979-.091-.285-.97.334-2.176.847-3.081.6-1.069,1.579-1.964,1.409-3.263-.217-1.656-1.661-1.486-3.1-1.859a8.77,8.77,0,0,0-1.644-.5c-.849.024-.546.36-1.122.594-1.936.785-.755-.97-1.591-2.01-.505-.629-1.677-.427-2.43-.783-.592-.28-.667-.682-1.132-1.084a2.407,2.407,0,0,0-.853-.569c-.322-.084-.353.447-.623.339-.76-.3-.351-.46-.777-.922-.53-.574-1.613-.993-2.009-1.646-.525-.867-.3-1.473-1.1-1.911-.532-.292-1.271.3-1.5-.826-.077-.378.366-1.839.4-2.446,1.643-.287-1.615-1.471-1-2.59,1.711-.205,1.431-1.586,1.857-2.575a4.911,4.911,0,0,1,1.873-2.583c1.207-.7,1.675-1.322,3.115-1.444,1.623-.138,3.151-1.037,4.74-.953.026-.5,0-1.01.022-1.514.047-.974-.062-.675.594-1.473a4.039,4.039,0,0,1,3.028-1.937c.958-.234.981-.71,1.75-1.181a18.631,18.631,0,0,0,2.034-.936c.552-.411.907-.924,1.619-1.06.609-.117,1.123.418,1.634-.2,1.127-1.363-2.53-3.6-3.2-4.383-.579-.674-.938-1.761-1.458-2.354-.155-.177-.585-.134-.757-.344s-.057-.508-.217-.714c-.364-.466-.44-.732-1.059-1.026s-1.669,0-2.078-.617c-.368-.553.08-1.976-.016-2.584-.158-1.006-1.4-4.081-2.625-1.987-1.317-1.017-1.059-5.707-.1-6.939,1.2,1.027,2.195-1.636,2.113-2.581.391.03.829-.058,1.219-.036.124-.864-.471-1.436-.825-2.215-.309-.682-.245-1.719-1.015-2.137.37-1,.814-.969,1.733-1.364a3.381,3.381,0,0,0,1.731-1.44c.254-.361.024-.535.388-.909a9.546,9.546,0,0,1,1.128-.616,3.069,3.069,0,0,0,1.35-1.79c.456-1.336.731-3.271,1.875-4.207.757-.619,3.158-1.722,4.153-1.294Z" fill="none" stroke="#fff" stroke-linecap="round" stroke-linejoin="round" stroke-width="3"></path></g></svg> 